<svg viewBox = "0 0 400 400" width="400" height="400" xmlns="http://www.w3.org/2000/svg"><g transform="matrix(1 0 0 1 200 200)"  ><g style=""   ><g transform="matrix(1 0 0 1 7.59 33.13)" id="Layer_1"  ><path style="stroke: none; stroke-width: 1; stroke-dasharray: none; stroke-linecap: butt; stroke-dashoffset: 0; stroke-linejoin: miter; stroke-miterlimit: 4; fill: rgb(255,43,43); fill-rule: nonzero; opacity: 1;"  transform=" translate(-207.59, -233.13)" d="M 207.6 298.9 C 204.7 298.09999999999997 201.79999999999998 297.29999999999995 199.79999999999998 296.4 C 194.89999999999998 294.7 194.7 290.9 196.39999999999998 287 C 197.29999999999998 285 199.09999999999997 283 198.99999999999997 281.1 C 198.69999999999996 276.3 196.59999999999997 271.70000000000005 192.59999999999997 268 C 189.59999999999997 265.3 186.59999999999997 263.5 183.59999999999997 261.8 C 179.59999999999997 259.1 174.69999999999996 257.5 170.79999999999995 254.8 C 164.89999999999995 251.3 159.89999999999995 247.70000000000002 154.89999999999995 243.20000000000002 C 146.79999999999995 235.00000000000003 142.39999999999995 224.70000000000002 142.79999999999995 213.20000000000002 C 142.29999999999995 204.60000000000002 143.79999999999995 195.9 147.09999999999997 187.10000000000002 C 151.99999999999997 171.50000000000003 161.89999999999998 160.40000000000003 175.99999999999997 153.90000000000003 C 184.39999999999998 149.60000000000002 193.79999999999998 146.20000000000005 203.29999999999998 144.80000000000004 C 222.2 140.90000000000003 239.7 145.70000000000005 253 160.30000000000004 C 264.1 171.20000000000005 270.6 185.20000000000005 272.4 200.40000000000003 C 272.7 206.10000000000002 272 211.00000000000003 270.4 216.80000000000004 C 268.7 221.70000000000005 266.09999999999997 226.60000000000005 263.5 230.60000000000005 C 262.6 231.60000000000005 262.6 231.60000000000005 261.7 232.60000000000005 C 256.3 238.60000000000005 253.79999999999998 246.40000000000006 253.29999999999998 254.10000000000005 C 253.39999999999998 256.00000000000006 252.6 258.00000000000006 251.7 260.90000000000003 C 251.79999999999998 261.90000000000003 251.89999999999998 263.8 251.89999999999998 263.8 C 253.89999999999998 265.6 255.89999999999998 266.5 257.9 268.3 C 260 271.1 260.09999999999997 273.90000000000003 258.4 276.90000000000003 C 256.59999999999997 278.90000000000003 255.7 280.90000000000003 253.89999999999998 282.90000000000003 C 254.99999999999997 285.70000000000005 255.2 288.6 253.39999999999998 291.50000000000006 C 252.49999999999997 292.50000000000006 252.49999999999997 293.50000000000006 251.7 295.40000000000003 C 250.79999999999998 296.40000000000003 251.79999999999998 297.3 251.89999999999998 298.3 C 253.99999999999997 301.1 253.09999999999997 303 252.29999999999998 305.90000000000003 C 249.7 311.8 246.2 316.8 239.6 319.00000000000006 C 234.9 321.20000000000005 229.2 322.40000000000003 224.5 322.70000000000005 C 222.6 322.80000000000007 221.6 322.90000000000003 219.7 322.00000000000006 C 216.79999999999998 321.20000000000005 213.79999999999998 318.50000000000006 214.5 314.6000000000001 C 214.4 312.7000000000001 213.4 311.80000000000007 211.4 310.9000000000001 C 208.5 310.1000000000001 208.3 307.2000000000001 208.20000000000002 304.4000000000001 C 207.8 302.7 207.7 300.8 207.6 298.9 z M 207.4 223.2 C 206.4 222.29999999999998 205.4 221.39999999999998 205.3 220.39999999999998 C 200.20000000000002 214.89999999999998 197 209.39999999999998 195.70000000000002 201.79999999999998 C 195.60000000000002 200.79999999999998 195.50000000000003 198.89999999999998 195.50000000000003 197.99999999999997 C 196.30000000000004 195.09999999999997 199.10000000000002 192.99999999999997 202.00000000000003 193.79999999999998 C 203.00000000000003 193.7 204.00000000000003 194.7 205.00000000000003 195.6 C 207.00000000000003 197.4 208.10000000000002 199.29999999999998 209.10000000000002 201.1 C 212.20000000000002 205.7 214.40000000000003 211.29999999999998 215.70000000000002 217 C 215.8 218 215.9 219.9 217.8 219.8 C 219.70000000000002 219.70000000000002 221.70000000000002 220.5 223.5 219.5 C 223.4 218.5 223.4 218.5 223.4 218.5 C 224 212.7 224.6 206 226.20000000000002 200.2 C 227.00000000000003 197.29999999999998 228.8 194.29999999999998 232.50000000000003 193.2 C 235.30000000000004 192.1 237.30000000000004 192.89999999999998 239.30000000000004 194.79999999999998 C 240.40000000000003 196.7 241.50000000000003 199.49999999999997 241.60000000000005 201.39999999999998 C 241.80000000000004 205.2 241.10000000000005 209.09999999999997 240.30000000000004 211.99999999999997 C 238.60000000000005 216.89999999999998 236.00000000000003 221.79999999999998 231.40000000000003 223.99999999999997 C 229.50000000000003 225.09999999999997 229.60000000000002 225.99999999999997 229.60000000000002 226.99999999999997 C 229.8 230.79999999999998 231.00000000000003 235.49999999999997 231.20000000000002 239.39999999999998 C 232.50000000000003 245.99999999999997 233.8 252.7 235.10000000000002 258.29999999999995 C 235.3 261.19999999999993 236.3 262.99999999999994 236.50000000000003 265.9 C 239.30000000000004 264.79999999999995 242.20000000000002 264.59999999999997 245.00000000000003 264.5 C 249.80000000000004 264.2 249.70000000000002 262.3 248.50000000000003 258.6 C 248.40000000000003 257.6 247.40000000000003 256.70000000000005 247.40000000000003 255.8 C 247.30000000000004 253.9 246.20000000000005 252 247.10000000000002 250.10000000000002 C 247.50000000000003 240.50000000000003 249.90000000000003 231.8 255.3 224.8 C 257.1 222.8 258.90000000000003 219.8 259.7 217.9 C 265 210 266.5 201.3 264 191.8 C 262.8 188 261.6 183.3 259.5 179.60000000000002 C 254.1 168.40000000000003 246 159.3 235.1 154.10000000000002 C 226.2 149.8 217.6 149.3 208.1 150.8 C 200.5 152.20000000000002 193.9 154.4 187.4 157.70000000000002 C 171.5 164.3 160.6 175.4 155.70000000000002 192 C 154.10000000000002 197.8 152.50000000000003 204.6 152.00000000000003 211.4 C 151.60000000000002 221 154.90000000000003 229.4 162.00000000000003 236.70000000000002 C 167.10000000000002 242.20000000000002 174.00000000000003 245.60000000000002 180.90000000000003 249.10000000000002 C 185.80000000000004 251.70000000000002 190.80000000000004 254.3 195.70000000000005 257.90000000000003 C 200.70000000000005 261.50000000000006 204.80000000000004 267.00000000000006 207.00000000000006 272.6 C 207.10000000000005 273.6 208.10000000000005 274.5 208.10000000000005 275.40000000000003 C 210.90000000000006 274.3 213.70000000000005 273.20000000000005 216.50000000000006 272.1 C 217.20000000000005 268.20000000000005 216.10000000000005 264.5 214.90000000000006 260.70000000000005 C 211.60000000000005 253.20000000000005 207.40000000000006 245.80000000000004 203.20000000000007 238.30000000000004 C 202.10000000000008 236.40000000000003 200.10000000000008 233.70000000000005 197.20000000000007 233.80000000000004 C 196.20000000000007 233.90000000000003 195.20000000000007 232.90000000000003 194.30000000000007 233.00000000000003 C 186.50000000000006 229.60000000000002 179.50000000000006 224.20000000000002 174.30000000000007 216.80000000000004 C 173.20000000000007 214.90000000000003 172.20000000000007 213.10000000000005 172.00000000000006 210.20000000000005 C 171.80000000000007 206.40000000000003 173.70000000000005 205.30000000000004 176.50000000000006 205.20000000000005 C 179.40000000000006 205.00000000000006 182.30000000000007 205.80000000000004 185.20000000000005 207.60000000000005 C 191.10000000000005 211.10000000000005 195.30000000000004 216.60000000000005 199.40000000000003 222.20000000000005 C 200.50000000000003 224.10000000000005 201.50000000000003 225.00000000000006 202.50000000000003 226.80000000000004 C 204.7 227.2 206.6 226.2 207.4 223.2 z M 214.3 226.7 C 212.60000000000002 230.6 209.9 233.6 206.20000000000002 235.79999999999998 C 207.20000000000002 236.7 207.3 237.7 207.3 238.6 C 213.60000000000002 248.79999999999998 219.9 259 221.5 271.4 C 224.3 270.29999999999995 227.1 269.2 230.9 268 C 227.3 254.8 223.70000000000002 241.6 222.1 228.3 C 219.1 227.4 217.2 226.5 214.3 226.7 z M 253 270.6 C 251 268.8 248.1 268 246.2 269 C 241.5 271.2 236.89999999999998 273.3 232.2 275.5 C 226.6 278.7 220 280.9 214.5 284.1 C 210.7 285.3 207.9 286.40000000000003 203.2 287.6 C 203.2 287.6 202.29999999999998 288.6 202.29999999999998 289.6 C 207.2 292.20000000000005 211.99999999999997 291 216.7 290.70000000000005 C 229 288.1 240.2 282.70000000000005 250.29999999999998 274.50000000000006 C 252.2 272.6 252.1 271.6 253 270.6 z M 248.1 285.2 C 237.1 293.5 225.79999999999998 297.9 212.39999999999998 298.59999999999997 C 211.79999999999998 304.4 213.79999999999998 306.2 219.39999999999998 304.9 C 219.39999999999998 304.9 219.39999999999998 304.9 220.39999999999998 304.79999999999995 C 226.89999999999998 301.59999999999997 234.49999999999997 299.29999999999995 240.99999999999997 295.99999999999994 C 244.8 295 247.4 291 248.1 285.2 z M 219.8 311.6 C 220 314.5 220 315.40000000000003 222.9 315.3 C 225.8 315.1 228.6 315 232.4 313.8 C 239 312.5 243.6 308.40000000000003 248.1 303.40000000000003 C 249 302.40000000000003 249.9 300.40000000000003 248.79999999999998 298.6 C 239.6 304.8 230.2 308.2 219.8 311.6 z M 191.3 226 C 187.20000000000002 221.4 184.10000000000002 216.8 178.20000000000002 214.3 C 180.3 218 185.4 223.5 191.3 226 z M 233.1 201.7 C 230.4 204.7 228.79999999999998 211.5 229.9 214.29999999999998 C 232.6 210.4 233.3 206.5 233.1 201.7 z" stroke-linecap="round" /></g><g transform="matrix(1 0 0 1 14.68 -102.65)" id="Layer_1"  ><path style="stroke: none; stroke-width: 1; stroke-dasharray: none; stroke-linecap: butt; stroke-dashoffset: 0; stroke-linejoin: miter; stroke-miterlimit: 4; fill: rgb(255,43,43); fill-rule: nonzero; opacity: 1;"  transform=" translate(-214.68, -97.35)" d="M 219.5 74.1 C 222.5 76.8 223.7 80.6 222.9 84.5 C 220.6 95.2 218.3 105.8 216 116.5 C 215.3 120.4 214.3 120.4 210.5 120.6 C 207.6 119.8 205.6 118 206.4 115.1 C 208.70000000000002 104.39999999999999 210.9 92.8 213.20000000000002 82.19999999999999 C 214 78.3 216.7 75.2 219.5 74.1 z" stroke-linecap="round" /></g><g transform="matrix(1 0 0 1 -39.7 -97.96)" id="Layer_1"  ><path style="stroke: none; stroke-width: 1; stroke-dasharray: none; stroke-linecap: butt; stroke-dashoffset: 0; stroke-linejoin: miter; stroke-miterlimit: 4; fill: rgb(255,43,43); fill-rule: nonzero; opacity: 1;"  transform=" translate(-160.3, -102.04)" d="M 151.7 77.8 C 154.6 78.6 155.7 80.5 155.79999999999998 82.39999999999999 C 159.1 89.89999999999999 161.39999999999998 97.39999999999999 163.7 104 C 165.89999999999998 109.6 167.2 115.3 169.39999999999998 120.9 C 169.49999999999997 121.9 169.59999999999997 123.80000000000001 170.59999999999997 124.7 C 169.59999999999997 124.8 168.69999999999996 125.8 167.79999999999995 125.8 C 164.99999999999994 126.89999999999999 162.99999999999994 126.1 161.89999999999995 123.2 C 158.49999999999994 112.8 153.09999999999994 101.6 151.49999999999994 90.2 C 151.29999999999995 86.4 151.09999999999994 83.5 149.99999999999994 79.7 C 150.8 79.7 151.7 78.7 151.7 77.8 z" stroke-linecap="round" /></g><g transform="matrix(1 0 0 1 45.99 -89.69)" id="Layer_1"  ><path style="stroke: none; stroke-width: 1; stroke-dasharray: none; stroke-linecap: butt; stroke-dashoffset: 0; stroke-linejoin: miter; stroke-miterlimit: 4; fill: rgb(255,43,43); fill-rule: nonzero; opacity: 1;"  transform=" translate(-245.99, -110.31)" d="M 257.9 93.1 C 258 95 258.09999999999997 96.89999999999999 257.2 97.89999999999999 C 255.6 103.69999999999999 254 109.6 250.39999999999998 114.5 C 247.7 117.5 245.99999999999997 121.4 243.29999999999998 125.4 C 242.39999999999998 126.4 241.49999999999997 127.4 239.6 127.5 C 235.79999999999998 127.7 232.79999999999998 125 234.5 121.1 C 234.4 120.1 235.4 120.1 235.4 119.1 C 239 114.1 241.6 109.19999999999999 245.1 104.19999999999999 C 247.79999999999998 100.19999999999999 251.4 97.19999999999999 254.1 94.1 C 256 94.2 257 94.2 257.9 93.1 z" stroke-linecap="round" /></g><g transform="matrix(1 0 0 1 -71.65 -58.41)" id="Layer_1"  ><path style="stroke: none; stroke-width: 1; stroke-dasharray: none; stroke-linecap: butt; stroke-dashoffset: 0; stroke-linejoin: miter; stroke-miterlimit: 4; fill: rgb(255,43,43); fill-rule: nonzero; opacity: 1;"  transform=" translate(-128.35, -141.59)" d="M 148.8 148.8 C 146.9 148.9 146 149.9 146 149.9 C 143.1 149.1 139.3 149.3 136.3 148.5 C 128.60000000000002 147 120.80000000000001 144.5 113.00000000000001 142.1 C 112.00000000000001 142.2 112.00000000000001 142.2 111.00000000000001 141.2 C 109.00000000000001 140.29999999999998 108.00000000000001 138.5 107.90000000000002 136.6 C 108.80000000000003 134.6 110.60000000000002 132.6 112.50000000000001 133.5 C 121.20000000000002 135.9 129.9 137.4 138.70000000000002 140.7 C 142.7 142.4 145.7 145.1 148.8 148.8 z" stroke-linecap="round" /></g></g></g></svg>