<svg viewBox = "0 0 308.4 104.7" width="308.4" height="104.7" xmlns="http://www.w3.org/2000/svg"><g transform="matrix(1 0 0 1 154.2 52.35)"  ><g style=""   ><g transform="matrix(1 0 0 1 -4.49 -0.4)" id="Layer_1"  ><path style="stroke: none; stroke-width: 1; stroke-dasharray: none; stroke-linecap: butt; stroke-dashoffset: 0; stroke-linejoin: miter; stroke-miterlimit: 4; fill: rgb(255,43,43); fill-rule: nonzero; opacity: 1;"  transform=" translate(-149.71, -51.95)" d="M 159.8 69.3 C 163.3 66.1 166.10000000000002 63.599999999999994 169.4 60.599999999999994 C 172.20000000000002 63.099999999999994 174.8 65.5 177.5 67.8 C 187.1 76 200.6 75.5 208.5 66.89999999999999 C 216.2 58.39999999999999 216.3 45.19999999999999 208.5 36.69999999999999 C 200.5 27.99999999999999 187 27.399999999999988 177.5 35.79999999999999 C 161.9 49.499999999999986 146.6 63.39999999999999 131.1 77.19999999999999 C 116.19999999999999 90.49999999999999 95.19999999999999 89.99999999999999 81.8 76.19999999999999 C 68.7 62.499999999999986 68.8 40.999999999999986 82 27.29999999999999 C 95.2 13.59999999999999 116.4 13.29999999999999 131.3 26.69999999999999 C 133.9 29.099999999999987 136.5 31.49999999999999 139.70000000000002 34.39999999999999 C 136.3 37.49999999999999 133.4 40.099999999999994 130.10000000000002 43.099999999999994 C 127.20000000000002 40.49999999999999 124.80000000000003 38.3 122.30000000000003 36.099999999999994 C 112.60000000000002 27.799999999999994 99.30000000000003 28.099999999999994 91.20000000000002 36.599999999999994 C 83.10000000000002 45.099999999999994 83.20000000000002 58.699999999999996 91.20000000000002 67.3 C 99.30000000000001 75.8 112.80000000000001 76.2 122.30000000000001 67.8 C 137.70000000000002 54.199999999999996 152.9 40.5 168.10000000000002 26.799999999999997 C 183.00000000000003 13.399999999999997 204.00000000000003 13.699999999999998 217.40000000000003 27.4 C 230.60000000000002 41 230.70000000000005 62.699999999999996 217.70000000000005 76.3 C 204.30000000000004 90.2 183.30000000000004 90.7 168.40000000000003 77.39999999999999 C 165.9 74.8 163.2 72.4 159.8 69.3 z" stroke-linecap="round" /></g><g transform="matrix(1 0 0 1 -112.55 -3.8)" id="Layer_1"  ><path style="stroke: none; stroke-width: 1; stroke-dasharray: none; stroke-linecap: butt; stroke-dashoffset: 0; stroke-linejoin: miter; stroke-miterlimit: 4; fill: rgb(0,0,0); fill-rule: nonzero; opacity: 1;"  transform=" translate(-41.65, -48.55)" d="M 18.3 86.8 L 18.3 10.3 L 32.6 10.3 L 32.6 73.8 L 65 73.8 L 65 86.8 L 18.3 86.8 z" stroke-linecap="round" /></g><g transform="matrix(1 0 0 1 115.45 -3.8)" id="Layer_1"  ><path style="stroke: none; stroke-width: 1; stroke-dasharray: none; stroke-linecap: butt; stroke-dashoffset: 0; stroke-linejoin: miter; stroke-miterlimit: 4; fill: rgb(0,0,0); fill-rule: nonzero; opacity: 1;"  transform=" translate(-269.65, -48.55)" d="M 241.2 86.8 L 241.2 10.3 L 269.9 10.3 C 275.4 10.3 280.29999999999995 11.3 284.5 13.200000000000001 C 288.8 15.100000000000001 292.1 17.900000000000002 294.5 21.5 C 296.9 25.099999999999998 298.1 29.4 298.1 34.5 C 298.1 39.7 297 44 294.70000000000005 47.6 C 292.50000000000006 51.2 289.20000000000005 53.9 285.00000000000006 55.7 C 280.70000000000005 57.6 275.6000000000001 58.5 269.50000000000006 58.5 L 255.40000000000006 58.5 L 255.40000000000006 86.8 L 241.2 86.8 z M 255.5 46.4 L 269.6 46.4 C 274.20000000000005 46.4 277.70000000000005 45.5 280.20000000000005 43.6 C 282.70000000000005 41.7 284.00000000000006 38.800000000000004 284.00000000000006 34.8 C 284.00000000000006 30.799999999999997 282.70000000000005 27.799999999999997 280.1000000000001 25.799999999999997 C 277.50000000000006 23.799999999999997 274.00000000000006 22.699999999999996 269.7000000000001 22.699999999999996 L 255.5000000000001 22.699999999999996 L 255.5000000000001 46.4 z" stroke-linecap="round" /></g></g></g></svg>