<svg width="156" height="72" viewBox="0 0 156 72" fill="none" xmlns="http://www.w3.org/2000/svg">
<path d="M87.8 53.3C91.3 50.1 94.1 47.6 97.4 44.6C100.2 47.1 102.8 49.5 105.5 51.8C115.1 60 128.6 59.5 136.5 50.9C144.2 42.4 144.3 29.2 136.5 20.7C128.5 12 115 11.4 105.5 19.8C89.9 33.5 74.6 47.4 59.1 61.2C44.2 74.5 23.2 74 9.79999 60.2C-3.30001 46.5 -3.20001 25 9.99999 11.3C23.2 -2.39998 44.4 -2.69998 59.3 10.7C61.9 13.1 64.5 15.5 67.7 18.4C64.3 21.5 61.4 24.1 58.1 27.1C55.2 24.5 52.8 22.3 50.3 20.1C40.6 11.8 27.3 12.1 19.2 20.6C11.1 29.1 11.2 42.7 19.2 51.3C27.3 59.8 40.8 60.2 50.3 51.8C65.7 38.2 80.9 24.5 96.1 10.8C111 -2.59998 132 -2.29998 145.4 11.4C158.6 25 158.7 46.7 145.7 60.3C132.3 74.2 111.3 74.7 96.4 61.4C93.9 58.8 91.2 56.4 87.8 53.3Z" fill="#FF2B2B"/>
</svg>
